<svg width="160px" height="48px" viewBox="0 0 1325 293" version="1.1" xmlns="http://www.w3.org/2000/svg" xmlns:xlink="http://www.w3.org/1999/xlink">
    <!-- Generator: Sketch 46.2 (44496) - http://www.bohemiancoding.com/sketch -->
    <title>Group</title>
    <desc>Created with Sketch.</desc>
    <defs></defs>
    <g id="Page-1" stroke="none" stroke-width="1" fill="none" fill-rule="evenodd">
        <g id="Artboard" transform="translate(-114.000000, -163.000000)" fill="#FFFFFF">
            <g id="Group-12" transform="translate(-1688.000000, 36.000000)">
                <g id="Group" transform="translate(1802.000000, 127.000000)">
                    <g id="Group-13-Copy-2">
                        <path d="M146.267747,0.582290181 C122.475759,0.582290181 100.013537,6.27118424 80.1639228,16.3626494 C79.2019805,16.8517398 78.6025641,17.846577 78.6025641,18.9246959 L78.6025641,103.636523 C78.6025641,105.226445 79.8914608,106.515797 81.4808225,106.515797 L83.2881538,106.515797 C84.2326888,106.515797 85.1257587,106.060776 85.6608438,105.282471 C98.842707,86.0981636 120.930294,73.5218767 145.958199,73.5218767 C165.144822,73.5218767 182.608123,80.9150163 195.649215,93.0082695 C196.789014,94.0651894 198.553205,94.0462618 199.652136,92.9469439 L247.3345,45.2522979 C248.479598,44.1075537 248.453865,42.2450731 247.283792,41.1260705 C221.042674,16.0105951 185.457622,0.582290181 146.267747,0.582290181" id="Fill-26"></path>
                        <path d="M199.651909,200.377325 C198.552978,199.278007 196.788787,199.259079 195.649744,200.315999 C182.607896,212.409252 165.144595,219.802392 145.957972,219.802392 C119.792538,219.802392 96.8383705,206.053348 83.9214009,185.38587 C82.3865316,182.930575 78.6030939,184.009451 78.6030939,186.904624 L78.6030939,274.657746 C78.6030939,275.736622 79.2025103,276.731459 80.1636957,277.220549 C100.01331,287.311257 122.475532,292.995609 146.267519,292.995609 C185.524753,292.995609 221.162027,277.517335 247.416012,252.325392 C248.583057,251.205632 248.608033,249.345423 247.46445,248.201436 L199.651909,200.377325 Z" id="Fill-28"></path>
                        <path d="M5.32557264,118.033271 C3.9299617,118.033271 2.74021094,119.034922 2.48969726,120.407555 C0.931365957,128.965124 0.114736778,137.780108 0.114736778,146.78664 C0.114736778,196.382379 24.8035787,240.211999 62.556217,266.647111 C64.4649647,267.983403 67.0896821,266.616826 67.0896821,264.286454 L67.0896821,120.912545 C67.0896821,119.322622 65.8007854,118.033271 64.2114237,118.033271 L5.32557264,118.033271 Z" id="Fill-30"></path>
                        <path d="M9.60337751,106.515645 L64.2115751,106.515645 C65.8009368,106.515645 67.0890766,105.226294 67.0890766,103.636371 L67.0890766,29.290839 C67.0890766,26.9619811 64.4666298,25.5938907 62.5586389,26.9286685 C36.4756997,45.1893067 16.6336541,71.7493403 6.85226809,102.780084 C6.26874529,104.631209 7.66284255,106.515645 9.60337751,106.515645" id="Fill-32"></path>
                    </g>
                    <text id="INCOURSE" font-family="PingFangSC-Semibold, PingFang SC" font-size="200" font-weight="500">
                        <tspan x="289" y="219">INCOURSE</tspan>
                    </text>
                </g>
            </g>
        </g>
    </g>
</svg>